<?xml version="1.0" standalone="no"?>
<!DOCTYPE svg PUBLIC "-//W3C//DTD SVG 20010904//EN"
 "http://www.w3.org/TR/2001/REC-SVG-20010904/DTD/svg10.dtd">
<svg version="1.0" xmlns="http://www.w3.org/2000/svg"
 width="750.000000pt" height="750.000000pt" viewBox="0 0 750.000000 750.000000"
 preserveAspectRatio="xMidYMid meet">
<metadata>
Created by potrace 1.14, written by Peter Selinger 2001-2017
</metadata>
<g transform="translate(0.000000,750.000000) scale(0.100000,-0.100000)"
fill="#000000" stroke="none">
<path d="M2194 7300 c-27 -11 -63 -59 -110 -150 -21 -41 -42 -77 -45 -80 -6
-6 -88 -142 -107 -180 -28 -54 -81 -98 -102 -85 -5 3 -16 -7 -24 -23 -21 -41
-44 -57 -85 -57 -20 0 -40 -3 -46 -6 -21 -11 -77 -10 -90 1 -8 7 -20 10 -27 8
-7 -3 -19 1 -26 9 -8 7 -25 11 -38 9 -16 -3 -27 0 -31 10 -5 13 -7 13 -17 -1
-8 -12 -18 -13 -43 -6 -17 5 -34 7 -36 5 -3 -3 -16 -7 -31 -10 -19 -3 -26 0
-26 11 0 14 -3 14 -24 0 -22 -15 -25 -15 -38 3 -7 11 -23 22 -34 26 -21 6 -78
64 -199 201 -131 148 -174 176 -271 178 -41 0 -93 -27 -94 -49 0 -5 -5 -15
-12 -22 -6 -6 -13 -17 -14 -24 -2 -7 -6 -26 -9 -42 -3 -16 -9 -34 -13 -40 -13
-21 -22 -75 -29 -177 -6 -94 5 -160 42 -244 12 -29 21 -67 19 -90 -1 -22 1
-44 5 -50 3 -5 6 -43 6 -83 1 -57 -3 -76 -16 -88 -15 -13 -16 -20 -6 -41 9
-21 8 -27 -7 -35 -13 -7 -14 -13 -6 -23 6 -7 7 -16 3 -18 -5 -3 -10 -19 -11
-36 -2 -23 2 -31 14 -31 11 0 15 -6 11 -20 -3 -11 -1 -23 5 -26 5 -3 0 -16
-13 -30 -14 -14 -17 -24 -10 -24 14 0 47 -38 70 -80 10 -18 14 -67 13 -183 0
-107 4 -162 12 -170 6 -7 11 -19 11 -27 -1 -8 2 -23 7 -32 5 -10 4 -19 -2 -23
-8 -5 -8 -11 0 -20 7 -9 8 -15 1 -19 -7 -4 -7 -15 -1 -30 5 -13 7 -26 5 -27
-2 -2 -6 -17 -8 -34 -3 -16 -9 -41 -12 -55 -4 -14 -9 -99 -11 -190 -2 -91 -5
-176 -7 -190 -23 -138 -25 -154 -32 -235 -10 -124 -21 -190 -35 -220 -11 -24
-24 -131 -21 -165 2 -14 10 -43 18 -65 38 -100 52 -142 56 -170 6 -33 35 -96
50 -106 5 -3 9 -10 8 -15 -1 -25 23 -95 38 -111 10 -10 16 -24 14 -30 -4 -12
34 -92 73 -155 14 -21 22 -38 18 -38 -3 0 8 -17 24 -37 30 -39 48 -71 78 -133
9 -19 19 -37 23 -40 14 -10 71 -120 71 -138 0 -10 4 -22 9 -27 5 -6 14 -26 20
-45 5 -19 24 -75 41 -125 17 -49 33 -107 35 -129 3 -21 7 -46 9 -55 3 -9 8
-41 11 -71 4 -34 11 -58 21 -63 14 -8 14 -11 -2 -28 -9 -10 -12 -19 -6 -19 7
0 9 -7 5 -17 -4 -11 -3 -14 5 -9 7 4 12 1 12 -8 0 -8 -5 -18 -10 -21 -14 -8
-13 -45 1 -45 7 0 8 -7 4 -17 -12 -32 -10 -38 8 -35 23 4 33 -25 18 -51 -10
-16 -10 -21 1 -28 7 -5 8 -9 3 -9 -6 0 -11 -9 -11 -20 0 -11 4 -20 9 -20 5 0
7 -14 5 -30 -3 -17 -1 -30 4 -30 5 0 6 -6 2 -12 -14 -22 -12 -49 3 -44 16 7
16 1 1 -24 -11 -17 -10 -22 1 -29 7 -5 10 -14 7 -20 -4 -6 -2 -11 3 -11 13 0
10 -22 -4 -32 -6 -5 -5 -8 2 -8 7 0 10 -7 7 -15 -4 -8 -1 -15 4 -15 6 0 10
-16 8 -38 -1 -21 4 -43 12 -51 9 -9 10 -17 3 -24 -6 -6 -5 -22 3 -46 7 -20 11
-42 9 -48 -3 -7 0 -13 7 -13 6 0 8 -4 5 -10 -3 -5 -1 -10 6 -10 8 0 8 -4 1
-13 -6 -7 -11 -22 -11 -32 0 -11 -1 -34 -3 -52 -2 -17 -1 -30 2 -28 4 2 7 -10
8 -28 2 -55 9 -162 11 -162 2 0 4 -27 6 -59 3 -32 10 -75 16 -95 7 -20 12 -38
11 -41 0 -3 6 -8 13 -13 9 -4 12 -18 10 -35 -9 -58 -17 -87 -27 -99 -6 -7 -7
-13 -4 -13 4 0 -8 -19 -27 -43 -19 -23 -40 -59 -46 -79 -7 -21 -16 -38 -21
-38 -5 0 -11 -14 -15 -30 -4 -17 -11 -28 -16 -24 -5 3 -9 0 -9 -6 0 -6 -4 -9
-9 -5 -9 5 -53 -48 -58 -70 -8 -41 -13 -56 -17 -64 -3 -4 -8 -39 -11 -76 -3
-37 -8 -72 -11 -76 -3 -5 0 -43 7 -84 12 -69 15 -75 43 -85 17 -6 42 -22 57
-36 22 -21 42 -28 91 -33 4 -1 9 -10 13 -21 3 -11 11 -19 18 -17 6 1 12 -4 13
-10 1 -7 3 -16 4 -20 1 -5 2 -11 1 -15 -1 -8 81 -17 137 -14 24 1 45 -1 48 -5
6 -10 344 -7 350 3 3 5 10 6 15 3 13 -9 170 15 198 30 14 7 26 23 28 36 4 38
15 84 22 89 4 3 12 24 19 47 29 99 132 134 193 66 16 -19 29 -40 29 -47 0 -12
29 -26 53 -25 5 0 19 -12 33 -28 l24 -28 162 1 c90 0 206 7 258 14 52 7 104
14 115 16 11 1 20 3 20 4 0 1 11 3 25 6 14 2 31 12 38 22 10 14 33 17 125 19
199 5 235 8 252 23 38 32 80 36 350 32 392 -4 518 -2 531 11 4 4 13 2 21 -4 7
-6 13 -7 13 -2 0 5 10 9 23 10 56 2 87 8 91 18 2 6 19 12 37 13 19 2 38 7 43
12 6 6 22 10 38 10 15 0 31 7 36 15 9 17 95 43 133 41 13 -1 29 5 35 13 8 10
31 14 77 14 36 0 69 -2 74 -5 4 -2 65 -3 135 -3 71 0 128 -2 128 -5 0 -3 26
-6 58 -7 81 -3 138 -11 252 -34 25 -5 58 -11 74 -14 15 -2 34 -9 41 -15 7 -6
17 -10 21 -9 5 1 16 0 24 -4 8 -3 39 -13 68 -22 29 -9 59 -23 66 -31 9 -8 16
-10 18 -4 2 6 10 2 19 -8 15 -17 14 -22 -7 -67 -13 -27 -22 -51 -19 -53 3 -3
-2 -14 -12 -24 -9 -10 -12 -18 -8 -18 4 0 1 -8 -8 -17 -8 -10 -16 -22 -18 -28
-3 -16 -10 -38 -19 -60 -8 -17 -8 -35 -1 -101 0 -7 11 -15 24 -19 13 -4 17 -8
9 -12 -17 -7 -5 -23 18 -23 10 0 26 -7 35 -17 21 -21 149 -30 207 -14 41 11
81 19 123 26 11 2 20 4 20 5 0 3 39 11 62 13 12 2 25 6 28 9 4 4 13 4 20 2 7
-3 29 2 50 10 21 9 48 16 60 16 13 0 25 5 27 10 2 6 13 12 26 13 12 0 22 5 22
9 0 4 11 8 24 8 13 0 29 6 35 14 7 8 20 13 29 11 9 -1 26 5 37 15 11 9 40 22
65 29 56 16 121 51 114 63 -3 4 2 8 10 8 19 0 21 16 4 23 -8 3 -6 6 5 6 15 1
22 12 18 34 0 4 4 7 10 7 8 0 8 4 1 13 -7 8 -7 18 -2 27 6 9 5 17 -3 22 -8 5
-7 8 5 8 24 0 31 16 16 42 -6 13 -11 33 -9 45 1 12 -5 26 -16 32 -12 7 -13 10
-4 11 11 0 11 3 1 15 -7 8 -10 15 -7 15 2 0 -24 29 -60 65 -35 36 -68 65 -74
65 -5 0 -51 43 -103 95 -51 52 -100 95 -109 95 -9 0 -19 9 -22 20 -4 11 -11
17 -17 14 -7 -5 -9 -1 -5 9 4 12 2 14 -10 10 -13 -5 -15 -2 -10 11 4 10 3 15
-3 11 -6 -3 -10 -1 -10 4 0 6 -12 11 -27 11 -14 0 -23 3 -20 7 10 9 -49 33
-80 33 -13 0 -21 4 -18 10 3 5 -1 10 -9 10 -9 0 -16 5 -16 10 0 6 -11 10 -25
10 -14 0 -25 5 -25 11 0 6 -9 9 -20 6 -13 -3 -18 -1 -13 6 4 6 -2 8 -16 4 -15
-4 -21 -2 -18 7 4 11 -10 16 -53 18 -8 0 -21 5 -28 11 -8 6 -30 12 -50 14 -53
5 -96 11 -102 13 -3 1 -8 2 -11 2 -3 0 -22 3 -42 8 -26 5 -37 4 -37 -4 0 -7
-3 -6 -9 2 -4 7 -12 12 -17 11 -5 -1 -11 -1 -14 0 -3 1 -34 4 -70 6 -36 3 -92
7 -125 10 -146 15 -426 36 -487 38 -38 1 -68 5 -68 8 0 4 -26 7 -57 8 -96 2
-135 10 -198 42 -64 33 -105 67 -108 90 -2 8 -6 20 -11 28 -5 8 -4 16 2 20 6
3 10 15 9 26 -1 11 3 19 11 18 14 -3 15 6 3 27 -13 20 -2 34 15 19 12 -9 12
-6 3 21 -8 21 -8 34 -2 39 16 10 21 34 12 53 -10 19 -1 51 12 42 5 -3 10 0 10
5 3 20 4 26 10 36 3 6 5 22 4 38 -1 15 2 27 7 27 13 0 10 44 -5 59 -10 12 -9
13 7 7 16 -6 17 -4 6 10 -9 10 -10 18 -4 22 18 12 25 44 13 58 -6 7 -9 19 -6
26 2 7 0 21 -5 31 -7 13 -5 17 9 17 13 0 14 3 5 12 -15 15 -16 45 0 50 7 3 8
9 3 18 -12 20 -15 60 -5 60 5 0 11 -6 13 -12 3 -8 6 -8 6 -2 1 6 -8 19 -18 28
-11 10 -17 24 -15 31 3 7 1 16 -5 20 -6 3 -11 11 -11 17 0 6 6 6 15 -2 9 -7
18 -10 22 -6 3 3 2 6 -4 6 -11 0 -26 37 -24 58 1 7 -4 15 -12 18 -8 3 -14 15
-13 27 1 12 -7 30 -18 40 -10 9 -14 17 -7 17 9 0 9 5 1 20 -8 14 -8 20 0 20 6
0 2 13 -9 29 -25 34 -26 45 -6 37 18 -7 18 -5 3 31 -6 15 -13 60 -14 98 -4 79
-7 102 -18 130 -14 37 -16 46 -7 40 13 -7 7 35 -8 63 -11 21 -10 24 9 29 13 4
17 8 10 13 -7 5 -8 14 -1 33 7 18 7 28 0 33 -6 3 -8 12 -5 19 2 7 -1 18 -7 24
-6 6 -7 11 -3 11 5 0 3 6 -3 14 -9 11 -8 15 5 20 12 5 13 10 6 19 -6 7 -11 22
-10 32 1 25 -7 62 -20 96 -6 15 -8 30 -5 33 4 3 1 6 -5 6 -7 0 -12 7 -12 16 0
16 -23 76 -41 104 -5 8 -12 22 -16 30 -4 8 -11 18 -16 21 -5 4 -10 20 -11 37
-1 17 -10 40 -20 51 -11 12 -15 21 -11 21 4 0 0 9 -11 21 -10 11 -19 32 -19
47 -2 37 -25 82 -43 82 -9 0 -12 6 -8 16 4 10 0 21 -9 28 -9 6 -17 19 -18 27
-2 9 -11 28 -21 44 -15 22 -16 29 -5 36 11 6 10 9 -4 15 -9 3 -17 14 -17 24 0
10 -7 20 -15 24 -8 3 -12 12 -9 21 4 9 -3 23 -16 35 -15 13 -18 20 -9 20 11 0
11 2 -1 10 -13 8 -13 10 -1 10 10 0 3 12 -17 33 -18 18 -32 38 -32 45 0 7 -8
12 -17 13 -12 0 -14 2 -5 6 10 4 8 9 -8 20 -18 12 -19 17 -8 31 11 12 11 16 0
20 -20 6 -52 44 -46 54 3 4 -2 8 -10 8 -9 0 -16 5 -16 11 0 7 -11 22 -24 34
-14 13 -22 25 -20 28 8 8 -20 47 -33 47 -7 0 -13 4 -13 9 0 5 -16 15 -35 22
-22 8 -30 16 -23 20 8 5 3 11 -15 18 -16 6 -26 15 -22 20 3 5 -4 12 -15 16
-11 3 -20 12 -20 20 0 7 -17 16 -37 20 -32 6 -35 9 -18 15 18 8 18 9 2 9 -10
1 -16 5 -12 10 3 6 -5 15 -17 22 -12 7 -31 23 -41 36 -11 13 -29 23 -43 23
-14 0 -22 4 -19 10 3 6 -1 10 -9 10 -15 0 -20 11 -17 38 1 6 -5 12 -14 12 -8
0 -15 5 -15 12 0 6 -3 9 -6 5 -3 -3 -16 5 -28 17 -11 13 -39 26 -61 30 -22 5
-43 12 -46 17 -3 6 -17 11 -30 12 -13 1 -34 8 -46 15 -12 7 -26 11 -30 10 -4
-2 -9 1 -10 6 -2 14 -25 25 -45 21 -10 -2 -18 1 -18 6 0 6 -10 9 -22 8 -34 -3
-108 12 -108 22 0 5 -7 9 -15 9 -8 0 -15 3 -15 8 0 4 -15 8 -32 9 -63 2 -88 7
-88 18 0 6 -20 9 -45 8 -28 -1 -45 3 -45 10 0 8 -3 8 -12 -1 -8 -8 -16 -8 -32
0 -12 6 -22 11 -23 10 -2 -1 -12 -2 -23 -2 -13 0 -18 5 -13 15 3 9 2 15 -3 14
-17 -4 -43 13 -38 25 3 7 -10 31 -29 54 -18 23 -33 52 -34 64 -1 12 -7 24 -13
28 -15 9 -15 21 1 31 10 6 6 11 -13 18 -36 14 -49 42 -49 104 0 9 -5 17 -10
17 -6 0 -8 4 -5 9 4 5 3 11 -1 14 -5 2 -3 2 4 1 16 -4 27 13 12 18 -7 2 -12
15 -13 28 -1 14 -5 31 -9 38 -5 6 -5 12 -1 12 4 0 1 6 -7 13 -8 6 -21 25 -27
41 -11 25 -11 28 4 22 12 -5 15 -2 10 10 -5 12 -1 14 17 9 12 -3 18 -3 12 2
-5 4 -10 17 -10 28 1 14 -13 27 -45 42 -46 23 -46 23 40 6 23 -4 25 -1 24 29
0 18 5 39 10 47 9 12 7 13 -9 8 -18 -6 -18 -6 -3 6 9 7 18 22 20 32 3 18 -5
21 -67 26 -54 4 -61 6 -30 9 22 2 54 4 70 4 24 1 29 5 27 21 -2 11 -10 27 -19
37 -10 11 -11 18 -3 23 5 3 8 11 4 16 -8 13 -16 58 -18 94 -1 17 -7 39 -13 51
-7 11 -15 34 -18 50 -3 16 -7 34 -8 40 -2 6 -10 23 -20 37 -9 15 -17 30 -17
34 -1 24 -103 109 -119 99 -5 -3 -11 1 -15 9 -3 8 -1 15 5 15 6 0 7 5 4 11 -4
6 -9 8 -13 5 -11 -12 -31 29 -20 41 10 12 0 18 -24 14 -15 -2 -8 20 7 25 8 4
15 10 15 15 0 4 -7 6 -15 2 -10 -3 -15 0 -13 8 2 9 -4 13 -15 11 -9 -2 -20 4
-23 13 -5 11 -10 13 -19 5 -10 -9 -12 -3 -10 25 4 40 3 41 -21 18 -17 -17 -18
-17 -11 0 3 9 3 17 -2 17 -25 0 -42 136 -45 365 -2 77 -5 151 -9 165 -4 14 -9
43 -12 65 -5 39 -38 86 -59 84 -6 0 -20 -4 -32 -9z"/>
</g>
</svg>
